<svg data-v-0dd9719b="" version="1.0" xmlns="http://www.w3.org/2000/svg" xmlns:xlink="http://www.w3.org/1999/xlink" width="100%" height="100%" viewBox="0 0 340.000000 250.000000" preserveAspectRatio="xMidYMid meet" color-interpolation-filters="sRGB" style="margin: auto;">  <rect data-v-0dd9719b="" x="0" y="0" width="100%" height="100%" fill="url(#watermark)" fill-opacity="1" class="watermarklayer custom-cursor-on-hover"></rect> <g data-v-0dd9719b="" fill="#426687" class="icon-text-wrapper icon-svg-group iconsvg" transform="translate(46.91999816894531,97.36551284790039)"><g class="iconsvg-imagesvg" transform="translate(0,0)"><g><rect fill="#426687" fill-opacity="0" stroke-width="2" x="0" y="0" width="60" height="55.26897568165071" class="image-rect"></rect> <svg filter="url(#colors8389944241)" x="0" y="0" width="60" height="55.26897568165071" filtersec="colorsf1220956373" class="image-svg-svg primary" style="overflow: visible;"><svg xmlns="http://www.w3.org/2000/svg" viewBox="0 0 108.55999755859375 100.00030517578125"><title>资源 171</title><path d="M54.28 0c.94 0 1.88 0 2.81.07-3.85 27.78-4.27 63.54 1.55 99.77-1.44.1-2.89.16-4.36.16a57.39 57.39 0 0 1-30-8.35C29.92 48.35 41 18.58 51.67.06Q53 0 54.28 0zm6.47.35c19.57 2.15 36 13.88 43.44 30-9.75 9.91-22.55 30-33.52 60.55C60.68 65.62 58.84 29.3 60.75.35zm44.68 32.89c-8 10.63-17.53 30-23.62 59.85 16-8.7 26.75-24.74 26.75-43.09a46.46 46.46 0 0 0-3.13-16.76zM9.19 77.84C20.13 43.33 33.11 17.71 44.77.76 19.33 4.91 0 25.38 0 50a47.07 47.07 0 0 0 9.19 27.84z" fill="#333" fill-rule="evenodd"></path></svg></svg> <defs><filter id="colors8389944241"><feColorMatrix type="matrix" values="0 0 0 0 0.20703125  0 0 0 0 0.27734375  0 0 0 0 0.34375  0 0 0 1 0" class="icon-fecolormatrix"></feColorMatrix></filter> <filter id="colorsf1220956373"><feColorMatrix type="matrix" values="0 0 0 0 0.99609375  0 0 0 0 0.99609375  0 0 0 0 0.99609375  0 0 0 1 0" class="icon-fecolormatrix"></feColorMatrix></filter> <filter id="colorsb7659300629"><feColorMatrix type="matrix" values="0 0 0 0 0  0 0 0 0 0  0 0 0 0 0  0 0 0 1 0" class="icon-fecolormatrix"></feColorMatrix></filter></defs></g></g> <g transform="translate(67,15.104372024536133)"><g data-gra="path-name" fill-rule="" class="tp-name iconsvg-namesvg" transform="translate(0,0)"><g transform="scale(1)"><g><path d="M4.72-10.31L4.72-1.92 6.63-1.92 6.63 0 0.43 0 0.43-1.92 2.35-1.92 2.35-10.31 0.51-10.31 0.51-12.21 2.35-12.21 2.35-13.81 4.72-13.81 4.72-12.21 6.57-12.21 6.57-10.31 4.72-10.31ZM15.14-10.6L17.3-10.6 17.57-10.6 17.57-1.45Q17.57-0.84 17.15-0.41 16.73 0.02 16.12 0.02L16.12 0.02 13.23 0.02 14.07-1.9 14.73-1.9Q14.91-1.9 15.03-2.03 15.14-2.15 15.14-2.33L15.14-2.33 15.14-8.69 14.44-8.69 12.46-0.31 10.15-0.31 12.13-8.69 11.27-8.69 9.23-0.31 6.95-0.31 8.98-8.69 7.63-8.69 7.63-10.6 11.92-12.21 7.61-12.21 7.61-14.13 17.35-14.13 17.35-12.21 17.33-12.21 12.99-10.6 15.14-10.6ZM25.53-10.43L25.53-13.4 28.86-13.4 28.55-14.11 31.56-14.11 31.87-13.4 33.75-13.4Q34.53-13.4 35.08-12.86 35.63-12.33 35.63-11.54L35.63-11.54 35.63-10.43 32.91-10.43 32.91-11.02Q32.91-11.21 32.78-11.35 32.65-11.48 32.46-11.48L32.46-11.48 28.23-11.48 28.23-10.43 25.53-10.43ZM33.24-5.2L28.43-5.2 28.43-4.58 32.67-4.58 35.1-4.58 35.37-4.58 35.37-2.13Q35.37-1.68 35.21-1.29 35.04-0.9 34.75-0.61 34.45-0.31 34.06-0.15 33.67 0.02 33.24 0.02L33.24 0.02 28.43 0.02 27.49 0.02 25.73 0.02 25.73-9.68 27.37-9.68 28.43-9.68 32.67-9.68 35.1-9.68 35.37-9.68 35.37-7.36Q35.37-6.91 35.21-6.52 35.04-6.12 34.75-5.83 34.45-5.54 34.06-5.37 33.67-5.2 33.24-5.2L33.24-5.2ZM32.67-7.9L28.43-7.9 28.43-6.98 32.05-6.98Q32.32-6.98 32.5-7.16 32.67-7.34 32.67-7.59L32.67-7.59 32.67-7.9ZM32.67-2.8L28.43-2.8 28.43-1.76 32.05-1.76Q32.32-1.76 32.5-1.94 32.67-2.11 32.67-2.37L32.67-2.37 32.67-2.8ZM22.03-1.92L24.91-1.92 24.07 0.02 20.97 0.02Q20.52 0.02 20.14-0.15 19.76-0.31 19.47-0.61 19.17-0.9 19.01-1.28 18.84-1.66 18.84-2.11L18.84-2.11 18.84-10.31 21.4-10.31 21.4-2.52Q21.4-2.27 21.58-2.09 21.76-1.92 22.03-1.92L22.03-1.92ZM22.3-11.5L18.35-11.5 19.51-14.11 22.15-14.11 21.78-13.3 25.34-13.3 24.42-8.47 21.78-8.47 22.3-11.5ZM53.55-8.71L53.55-3.07 51.67-3.07 53.39 0.02 50.91 0.02 49.23-3.03 47.43-0.02 44.71-0.02 46.62-3.07 44.59-3.07 44.59-10.86 45-10.86 47.02-10.86 47.58-10.86 48.11-12.13 44.55-12.13 44.55-14.05 53.55-14.05 53.55-12.13 50.52-12.13 49.99-10.86 51.53-10.86Q51.95-10.86 52.32-10.69 52.69-10.53 52.96-10.23 53.24-9.94 53.39-9.55 53.55-9.16 53.55-8.71L53.55-8.71ZM50.97-4.36L51.12-4.07 51.12-8.28Q51.12-8.55 50.96-8.74 50.79-8.92 50.54-8.92L50.54-8.92 47.02-8.92 47.02-3.7 47.86-5.05 47.86-7.92 50.28-7.92 50.28-4.77 50.03-4.36 50.97-4.36ZM41.81-8.94L44.2-8.94 43.2-5.75 41.4-5.75 41.97-7.36 41.15-7.36 41.15-2.29Q41.15-1.84 40.98-1.46 40.81-1.08 40.54-0.78 40.27-0.49 39.89-0.32 39.52-0.16 39.09-0.16L39.09-0.16 36.78-0.16 37.51-1.72 38.09-1.72Q38.33-1.72 38.5-1.9 38.68-2.07 38.68-2.33L38.68-2.33 38.68-7.36 36.43-7.36 36.43-8.94 37.82-8.94 37.13-11.07 39.03-11.07 39.66-9.14 41.09-12.31 36.78-12.31 36.78-14.13 44.16-14.13 41.81-8.94ZM64.49-8.67L66.54-3.31 63.7-3.31 61.65-8.67 64.49-8.67ZM61.87-10.31L60.48-10.31 62.51-14.11 65.78-14.11 64.9-12.46 71.57-12.46 71.57-2.19Q71.57-1.74 71.4-1.35 71.24-0.96 70.94-0.67 70.65-0.37 70.26-0.21 69.87-0.04 69.44-0.04L69.44-0.04 64.47-0.04 65.33-1.98 68.03-1.98Q68.3-1.98 68.48-2.15 68.65-2.33 68.65-2.58L68.65-2.58 68.65-10.31 61.87-10.31ZM60.07-2.68L54.41-2.68 56.56-7.53 54.41-7.53 57.29-14.15 60.14-14.15 58.05-9.29 58.48-9.29 60.2-9.29 58.05-4.44 60.07-4.44 60.07-2.68ZM60.07-1.74L60.07 0.04 54.41 0.04 54.41-1.74 60.07-1.74ZM82.33-10.37L87.52-10.37Q87.95-10.37 88.33-10.2 88.71-10.04 88.98-9.75 89.26-9.47 89.42-9.09 89.59-8.71 89.59-8.28L89.59-8.28 89.59-7.92 88.22-7.92 88.22-6.85 88.22-6.01Q88.22-5.38 87.77-4.93 87.32-4.48 86.69-4.48L86.69-4.48 76.58-4.48 76.58-3.8 88.22-3.8 88.22-3.5 88.22-2.33 88.22-1.51Q88.22-1.19 88.1-0.92 87.98-0.65 87.78-0.44 87.57-0.23 87.29-0.12 87.01 0 86.69 0L86.69 0 73.92 0 73.92-1.43 73.92-2.33 73.92-3.8 73.92-4.48 73.92-5.93 73.92-6.85 73.92-7.92 72.41-7.92 72.41-10.37 79.38-10.37 79.08-10.9 82.04-10.9 82.33-10.37ZM85.56-2.33L76.58-2.33 76.58-1.43 85.25-1.43Q85.56-1.43 85.56-1.74L85.56-1.74 85.56-2.33ZM79.63-9.06L75.09-9.06 75.09-8.3 86.91-8.3 86.91-8.55Q86.91-8.77 86.76-8.91 86.62-9.06 86.4-9.06L86.4-9.06 82.31-9.06 79.63-9.06ZM85.56-6.24L85.56-6.85 76.58-6.85 76.58-5.93 85.25-5.93Q85.56-5.93 85.56-6.24L85.56-6.24ZM80.59-13.54L80.59-12.21 78.77-12.21 79.28-11.27 77.01-11.27 76.48-12.21 75.54-12.21 75.11-11.27 72.41-11.27 73.74-14.09 76.42-14.09 76.17-13.54 80.59-13.54ZM82.45-14.09L85.15-14.09 84.87-13.54 89.3-13.54 89.3-12.21 87.48-12.21 88-11.27 85.72-11.27 85.19-12.21 84.25-12.21 83.82-11.27 81.12-11.27 82.45-14.09ZM107.55-1.57L107.55 0.04 97.36 0.04 97.36-1.57 101.09-1.57 101.09-3.37 97.49-3.37 97.49-5.01 101.09-5.01 101.09-6.28 99.9-6.28 97.85-6.28 97.42-6.28 97.42-14.15 97.85-14.15 99.9-14.15 107.49-14.15 107.49-8.43Q107.49-7.98 107.33-7.59 107.16-7.2 106.87-6.91 106.57-6.61 106.18-6.45 105.79-6.28 105.34-6.28L105.34-6.28 103.81-6.28 103.81-5.01 107.39-5.01 107.39-3.37 103.81-3.37 103.81-1.57 107.55-1.57ZM104.99-8.51L104.99-9.45 103.81-9.45 103.81-7.88 104.38-7.88Q104.63-7.88 104.81-8.06 104.99-8.24 104.99-8.51L104.99-8.51ZM104.99-11.05L104.99-12.54 103.81-12.54 103.81-11.05 104.99-11.05ZM101.09-12.54L99.9-12.54 99.9-11.05 101.09-11.05 101.09-12.54ZM99.9-7.88L101.09-7.88 101.09-9.45 99.9-9.45 99.9-7.88ZM90.43-12.17L90.43-14.11 96.71-14.11 96.71-12.17 94.93-12.17 94.93-8.57 96.53-8.57 96.53-6.63 94.93-6.63 94.93-1.88 96.71-1.88 96.71 0.06 90.43 0.06 90.43-1.88 92.21-1.88 92.21-6.63 90.63-6.63 90.63-8.57 92.21-8.57 92.21-12.17 90.43-12.17ZM124.51-7.98L124.51-2.15Q124.51-1.7 124.35-1.31 124.18-0.92 123.89-0.63 123.59-0.33 123.2-0.17 122.81 0 122.36 0L122.36 0 113.22 0 113.22-7.98 124.51-7.98ZM121.79-2.33L121.79-6.28 115.94-6.28 115.94-1.7 121.19-1.7Q121.44-1.7 121.62-1.88 121.79-2.05 121.79-2.33L121.79-2.33ZM125.61-14.13L125.61-12.19 112.07-12.19 112.07-11.52 112.07-2.09 111.11 0.04 108.39 0.04 109.35-2.09 109.35-14.13 111.42-14.13 112.07-14.13 125.61-14.13ZM113.11-9.2L113.11-11.15 124.63-11.15 124.63-9.2 113.11-9.2ZM142.87-5.24L142.87-1.96Q142.87-1.57 142.72-1.23 142.57-0.9 142.33-0.66 142.08-0.41 141.74-0.26 141.4-0.12 141.03-0.12L141.03-0.12 129.78-0.12 126.92-0.12 126.92-2.02 126.92-5.24 126.92-5.48 126.92-7.16 142.87-7.16 142.87-7.12 142.87-5.24ZM140.01-2.64L140.01-5.24 129.78-5.24 129.78-2.02 139.4-2.02Q139.66-2.02 139.83-2.19 140.01-2.37 140.01-2.64L140.01-2.64ZM127.39-8.1L126.61-8.1 130.38-13.99 133.14-13.99 130.6-10.02 139.36-10.02 137.45-13.21 140.07-13.21 143.39-7.65 140.79-7.65 140.52-8.1 129.37-8.1 127.39-8.1ZM148.48-3.72L147.01 0 144.47 0 145.92-3.72 148.48-3.72ZM157.58-3.72L160.14-3.72 161.59 0 159.03 0 157.58-3.72ZM144.41-10.96L144.41-13.17 161.59-14.11 161.59-11.9 154.25-11.48 151.61-9.76 152.43-9.76 153.23-9.76 156.58-9.76 151.61-6.53 157.38-6.53 156.33-8.06 159.14-8.06 161.59-4.54 160.4-4.54 158.77-4.54 155.09-4.54 155.09-2.13Q155.09-1.68 154.92-1.29 154.74-0.9 154.45-0.61 154.15-0.31 153.76-0.15 153.37 0.02 152.94 0.02L152.94 0.02 149.01 0.02 150.08-1.98 151.38-1.98Q151.63-1.98 151.81-2.15 151.98-2.33 151.98-2.6L151.98-2.6 151.98-4.54 148.54-4.54 144.47-4.54 144.41-4.54 149.38-7.77 148.54-7.77 145.35-7.77 144.41-7.77 149.73-11.25 144.41-10.96ZM179.59-12.7L179.59-10.76 172.72-10.76 171.67-8.2 176.5-8.2 176.03-9.59 178.3-9.59 179.53-6.05 177.24-6.05 177.14-6.32 176.83-6.32 176.83-2.54Q176.83-2.27 177.01-2.09 177.18-1.92 177.46-1.92L177.46-1.92 179.37-1.92 178.51 0.02 176.13 0.02Q175.38 0.02 174.87-0.5 174.37-1.02 174.37-1.76L174.37-1.76 174.37-6.32 172.55-6.32 171.33 0.02 168.75 0.02 169.96-6.32 167.97-6.32 169.87-10.76 168.61-10.76 168.61-12.7 172.88-12.7 172.23-14.13 175.32-14.13 175.95-12.7 179.59-12.7ZM168.05-2.7L162.41-2.7 164.72-7.55 162.41-7.55 165.31-13.83 168.34-13.83 166.09-9.31 166.54-9.31 168.05-9.31 165.85-4.48 168.05-4.48 168.05-2.7ZM162.41 0.02L162.41-1.76 168.05-1.76 168.05 0.02 162.41 0.02Z" transform="translate(-0.4300000071525574, 14.149999618530273)"></path></g> <!----> <!----> <!----> <!----> <!----> <!----> <!----></g></g> <g data-gra="path-slogan" fill-rule="" class="tp-slogan iconsvg-slogansvg" fill="#354758" transform="translate(1.8600006103515625,20.210000038146973)"><rect width="0"></rect> <rect x="178.44000244140625" width="0"></rect> <g transform="translate(0,0)"><g transform="scale(1)"><path d="M0.84-4.64L2.16-0.69L3.50-4.64L4.21-4.64L2.51 0L1.83 0L0.13-4.64L0.84-4.64ZM5.41-0.56L8.20-0.56L8.20 0L4.78 0L4.78-4.64L8.15-4.64L8.15-4.11L5.41-4.11L5.41-2.66L7.95-2.66L7.95-2.11L5.41-2.11L5.41-0.56ZM9.68-4.64L12.01-0.89L12.01-4.64L12.62-4.64L12.62 0L11.91 0L9.55-3.76L9.53-3.76L9.53 0L8.92 0L8.92-4.64L9.68-4.64ZM16.56-1.73L16.56-4.64L17.20-4.64L17.20-1.65Q17.12 0.03 15.29 0.08L15.29 0.08Q13.59 0.03 13.52-1.55L13.52-1.55L13.52-4.64L14.15-4.64L14.15-1.73Q14.18-0.46 15.32-0.43L15.32-0.43Q16.56-0.46 16.56-1.73L16.56-1.73ZM18.78-0.56L21.57-0.56L21.57 0L18.14 0L18.14-4.64L21.52-4.64L21.52-4.11L18.78-4.11L18.78-2.66L21.31-2.66L21.31-2.11L18.78-2.11L18.78-0.56ZM26.22-2.00L24.70-2.00L24.70 0L24.07 0L24.07-4.64L26.22-4.64Q27.77-4.64 27.77-3.40L27.77-3.40Q27.77-2.64 27.11-2.28L27.11-2.28Q27.67-2.13 27.67-1.40L27.67-1.40L27.72-0.56Q27.69-0.20 27.95-0.10L27.95-0.10L27.95 0L27.16 0Q27.09-0.33 27.06-1.17L27.06-1.17Q27.09-2.00 26.22-2.00L26.22-2.00ZM26.27-4.14L24.70-4.14L24.70-2.54L26.17-2.54Q27.11-2.54 27.11-3.35L27.11-3.35Q27.11-4.14 26.27-4.14L26.27-4.14ZM29.27-0.56L32.07-0.56L32.07 0L28.64 0L28.64-4.64L32.01-4.64L32.01-4.11L29.27-4.11L29.27-2.66L31.81-2.66L31.81-2.11L29.27-2.11L29.27-0.56ZM36.18-3.30L36.18-3.30L35.60-3.30Q35.55-4.19 34.43-4.24L34.43-4.24Q33.39-4.21 33.39-3.43L33.39-3.43Q33.39-2.92 33.95-2.84L33.95-2.84L35.27-2.54Q36.31-2.28 36.31-1.27L36.31-1.27Q36.28 0.03 34.48 0.08L34.48 0.08Q33.49 0.08 33.09-0.33L33.09-0.33Q32.58-0.71 32.60-1.50L32.60-1.50L33.21-1.50Q33.24-0.43 34.48-0.41L34.48-0.41Q35.70-0.43 35.73-1.19L35.73-1.19Q35.83-1.83 34.71-2.03L34.71-2.03L33.75-2.23Q32.76-2.51 32.76-3.35L32.76-3.35Q32.83-4.72 34.38-4.77L34.38-4.77Q36.13-4.77 36.18-3.30ZM37.71-0.56L40.50-0.56L40.50 0L37.08 0L37.08-4.64L40.45-4.64L40.45-4.11L37.71-4.11L37.71-2.66L40.25-2.66L40.25-2.11L37.71-2.11L37.71-0.56ZM43.45-2.00L41.93-2.00L41.93 0L41.29 0L41.29-4.64L43.45-4.64Q45.00-4.64 45.00-3.40L45.00-3.40Q45.00-2.64 44.34-2.28L44.34-2.28Q44.90-2.13 44.90-1.40L44.90-1.40L44.95-0.56Q44.92-0.20 45.18-0.10L45.18-0.10L45.18 0L44.39 0Q44.31-0.33 44.29-1.17L44.29-1.17Q44.31-2.00 43.45-2.00L43.45-2.00ZM43.50-4.14L41.93-4.14L41.93-2.54L43.40-2.54Q44.34-2.54 44.34-3.35L44.34-3.35Q44.34-4.14 43.50-4.14L43.50-4.14ZM46.15-4.64L47.47-0.69L48.81-4.64L49.52-4.64L47.82 0L47.14 0L45.44-4.64L46.15-4.64ZM53.08 0L52.62-1.34L50.75-1.34L50.26 0L49.63 0L51.38-4.64L52.09-4.64L53.77 0L53.08 0ZM51.68-3.96L50.95-1.90L52.40-1.90L51.71-3.96L51.68-3.96ZM55.42-4.11L53.85-4.11L53.85-4.64L57.60-4.64L57.60-4.11L56.03-4.11L56.03 0L55.42 0L55.42-4.11ZM58.17-4.64L58.80-4.64L58.80 0L58.17 0L58.17-4.64ZM63.45-2.31L63.45-2.31Q63.35-4.14 61.83-4.24L61.83-4.24Q60.28-4.16 60.20-2.31L60.20-2.31Q60.28-0.51 61.83-0.43L61.83-0.43Q63.35-0.53 63.45-2.31ZM64.09-2.31L64.09-2.31Q63.93 0 61.83 0.08L61.83 0.08Q59.70 0 59.54-2.31L59.54-2.31Q59.67-4.72 61.83-4.77L61.83-4.77Q63.93-4.69 64.09-2.31ZM65.49-4.64L67.82-0.89L67.82-4.64L68.43-4.64L68.43 0L67.72 0L65.36-3.76L65.34-3.76L65.34 0L64.73 0L64.73-4.64L65.49-4.64ZM75.47-4.64L75.47 0L74.86 0L74.86-2.74Q74.86-3.12 74.86-3.91L74.86-3.91L73.54 0L72.91 0L71.62-3.91L71.59-3.91Q71.59-3.63 71.62-3.07L71.62-3.07Q71.62-2.79 71.62-2.74L71.62-2.74L71.62 0L70.98 0L70.98-4.64L71.89-4.64L73.24-0.71L74.56-4.64L75.47-4.64ZM79.36 0L78.90-1.34L77.03-1.34L76.54 0L75.91 0L77.66-4.64L78.37-4.64L80.05 0L79.36 0ZM77.96-3.96L77.23-1.90L78.68-1.90L77.99-3.96L77.96-3.96ZM81.27-4.64L83.60-0.89L83.60-4.64L84.21-4.64L84.21 0L83.50 0L81.14-3.76L81.12-3.76L81.12 0L80.51 0L80.51-4.64L81.27-4.64ZM88.15 0L87.70-1.34L85.82-1.34L85.34 0L84.70 0L86.45-4.64L87.16-4.64L88.84 0L88.15 0ZM86.76-3.96L86.02-1.90L87.47-1.90L86.78-3.96L86.76-3.96ZM92.78-1.95L91.36-1.95L91.36-2.49L93.39-2.49L93.39 0L92.98 0L92.83-0.58Q92.29 0.05 91.30 0.08L91.30 0.08Q90.37 0.08 89.86-0.41L89.86-0.41Q89.10-1.12 89.12-2.36L89.12-2.36Q89.30-4.67 91.33-4.77L91.33-4.77Q93.06-4.67 93.31-3.25L93.31-3.25L92.70-3.25Q92.45-4.21 91.30-4.24L91.30-4.24Q89.86-4.14 89.78-2.33L89.78-2.33Q89.78-0.41 91.33-0.41L91.33-0.41Q91.89-0.41 92.29-0.71L92.29-0.71Q92.80-1.12 92.78-1.95L92.78-1.95ZM94.96-0.56L97.76-0.56L97.76 0L94.33 0L94.33-4.64L97.71-4.64L97.71-4.11L94.96-4.11L94.96-2.66L97.50-2.66L97.50-2.11L94.96-2.11L94.96-0.56ZM102.94-4.64L102.94 0L102.33 0L102.33-2.74Q102.33-3.12 102.33-3.91L102.33-3.91L101.01 0L100.38 0L99.08-3.91L99.06-3.91Q99.06-3.63 99.08-3.07L99.08-3.07Q99.08-2.79 99.08-2.74L99.08-2.74L99.08 0L98.45 0L98.45-4.64L99.36-4.64L100.71-0.71L102.02-4.64L102.94-4.64ZM104.47-0.56L107.26-0.56L107.26 0L103.83 0L103.83-4.64L107.21-4.64L107.21-4.11L104.47-4.11L104.47-2.66L107.00-2.66L107.00-2.11L104.47-2.11L104.47-0.56ZM108.74-4.64L111.07-0.89L111.07-4.64L111.68-4.64L111.68 0L110.97 0L108.61-3.76L108.58-3.76L108.58 0L107.97 0L107.97-4.64L108.74-4.64ZM113.74-4.11L112.17-4.11L112.17-4.64L115.92-4.64L115.92-4.11L114.35-4.11L114.35 0L113.74 0L113.74-4.11ZM119.84-4.14L118.73-4.14L118.73-2.69L119.84-2.69Q120.83-2.66 120.81-3.45L120.81-3.45Q120.81-4.14 119.84-4.14L119.84-4.14ZM120.10 0L118.09 0L118.09-4.64L120.15-4.64Q121.39-4.59 121.44-3.48L121.44-3.48Q121.44-2.79 120.83-2.51L120.83-2.51Q121.70-2.21 121.70-1.37L121.70-1.37Q121.62-0.05 120.10 0L120.10 0ZM119.94-2.16L118.73-2.16L118.73-0.53L120.07-0.53Q121.04-0.56 121.06-1.37L121.06-1.37Q121.06-2.16 119.94-2.16L119.94-2.16ZM125.38 0L124.92-1.34L123.05-1.34L122.56 0L121.93 0L123.68-4.64L124.39-4.64L126.07 0L125.38 0ZM123.99-3.96L123.25-1.90L124.70-1.90L124.01-3.96L123.99-3.96ZM130.41-3.27L130.41-3.27L129.80-3.27Q129.57-4.21 128.51-4.24L128.51-4.24Q127.04-4.16 126.99-2.36L126.99-2.36Q126.99-0.43 128.53-0.43L128.53-0.43Q129.60-0.46 129.85-1.73L129.85-1.73L130.46-1.73Q130.18 0.03 128.41 0.08L128.41 0.08Q126.38 0 126.33-2.33L126.33-2.33Q126.43-4.67 128.51-4.77L128.51-4.77Q130.16-4.72 130.41-3.27ZM132.47-2.33L131.74-1.65L131.74 0L131.10 0L131.10-4.64L131.74-4.64L131.74-2.39L133.99-4.64L134.88-4.64L132.93-2.77L134.93 0L134.10 0L132.47-2.33ZM136.03-0.56L138.82-0.56L138.82 0L135.40 0L135.40-4.64L138.77-4.64L138.77-4.11L136.03-4.11L136.03-2.66L138.57-2.66L138.57-2.11L136.03-2.11L136.03-0.56ZM140.30-4.64L142.63-0.89L142.63-4.64L143.24-4.64L143.24 0L142.53 0L140.17-3.76L140.15-3.76L140.15 0L139.54 0L139.54-4.64L140.30-4.64ZM146.02 0L144.14 0L144.14-4.64L146.04-4.64Q147.92-4.54 147.99-2.39L147.99-2.39Q147.89-0.05 146.02 0L146.02 0ZM145.94-4.14L144.77-4.14L144.77-0.53L145.99-0.53Q147.31-0.61 147.36-2.33L147.36-2.33Q147.33-4.09 145.94-4.14L145.94-4.14ZM153.79-3.30L153.79-3.30L153.21-3.30Q153.16-4.19 152.04-4.24L152.04-4.24Q151.00-4.21 151.00-3.43L151.00-3.43Q151.00-2.92 151.56-2.84L151.56-2.84L152.88-2.54Q153.92-2.28 153.92-1.27L153.92-1.27Q153.89 0.03 152.09 0.08L152.09 0.08Q151.10 0.08 150.70-0.33L150.70-0.33Q150.19-0.71 150.21-1.50L150.21-1.50L150.82-1.50Q150.85-0.43 152.09-0.41L152.09-0.41Q153.31-0.43 153.34-1.19L153.34-1.19Q153.44-1.83 152.32-2.03L152.32-2.03L151.36-2.23Q150.37-2.51 150.37-3.35L150.37-3.35Q150.44-4.72 151.99-4.77L151.99-4.77Q153.74-4.77 153.79-3.30ZM158.37-4.64L156.61-1.88L156.61 0L155.98 0L155.98-1.88L154.23-4.64L154.97-4.64L156.29-2.41L157.63-4.64L158.37-4.64ZM162.23-3.30L162.23-3.30L161.65-3.30Q161.59-4.19 160.48-4.24L160.48-4.24Q159.44-4.21 159.44-3.43L159.44-3.43Q159.44-2.92 160.00-2.84L160.00-2.84L161.32-2.54Q162.36-2.28 162.36-1.27L162.36-1.27Q162.33 0.03 160.53 0.08L160.53 0.08Q159.54 0.08 159.13-0.33L159.13-0.33Q158.63-0.71 158.65-1.50L158.65-1.50L159.26-1.50Q159.29-0.43 160.53-0.41L160.53-0.41Q161.75-0.43 161.77-1.19L161.77-1.19Q161.87-1.83 160.76-2.03L160.76-2.03L159.79-2.23Q158.80-2.51 158.80-3.35L158.80-3.35Q158.88-4.72 160.43-4.77L160.43-4.77Q162.18-4.77 162.23-3.30ZM164.24-4.11L162.67-4.11L162.67-4.64L166.42-4.64L166.42-4.11L164.85-4.11L164.85 0L164.24 0L164.24-4.11ZM167.60-0.56L170.39-0.56L170.39 0L166.96 0L166.96-4.64L170.34-4.64L170.34-4.11L167.60-4.11L167.60-2.66L170.13-2.66L170.13-2.11L167.60-2.11L167.60-0.56ZM175.57-4.64L175.57 0L174.96 0L174.96-2.74Q174.96-3.12 174.96-3.91L174.96-3.91L173.64 0L173.01 0L171.71-3.91L171.69-3.91Q171.69-3.63 171.71-3.07L171.71-3.07Q171.71-2.79 171.71-2.74L171.71-2.74L171.71 0L171.08 0L171.08-4.64L171.99-4.64L173.34-0.71L174.66-4.64L175.57-4.64Z" transform="translate(-0.12686777558500142, 4.770228361996053)"></path></g></g></g></g></g><defs v-gra="od"></defs></svg>