<svg data-v-0dd9719b="" version="1.0" xmlns="http://www.w3.org/2000/svg" xmlns:xlink="http://www.w3.org/1999/xlink" width="100%" height="100%" viewBox="0 0 340.000000 250.000000" preserveAspectRatio="xMidYMid meet" color-interpolation-filters="sRGB" style="margin: auto;">   <g data-v-0dd9719b="" fill="#b722ff" class="basesvg" transform="translate(62.42500305175781,111.53061008453369)"><g data-gra="path-name" fill-rule="" class="tp-name" transform="translate(0,0)" fill="url(#6c0b7b33-dcc6-4e9f-9e8e-faa17f33b6f7)"><g transform="scale(1)"><g><path d="M16.95-12.16L18-12.16 18-13.66 13.19-13.66C13.32-13.91 13.41-14.19 13.5-14.46L11.44-14.46C11.19-13.53 10.73-12.7 9.72-11.49L11.06-11.49C11.29-11.17 11.57-10.86 11.85-10.59 11.26-10.46 10.61-10.34 9.88-10.25L10.14-9.11 8.6-9.11 8.6-8.48 3.85-8.48 4.03-7.08 8.6-7.08 8.6-6.58 2.13-6.58 2.31-5.13 8.6-5.13 8.6-4.63 3.45-4.63 3.63-3.23 8.6-3.23 8.6-2.76 3.23-2.76 3.42-1.37 8.6-1.37 8.6-0.94 1.75-0.94 1.93 0.51 8.6 0.51 8.6 1.81 10.77 1.81 10.77 0.51 18 0.51 18-0.94 10.77-0.94 10.77-1.37 16.57-1.37 16.57-2.76 10.77-2.76 10.77-3.23 14.93-3.23C15.78-3.23 16.35-3.81 16.35-4.64L16.35-5.13 17.75-5.13 17.75-6.58 16.35-6.58 16.35-7.07C16.35-7.91 15.78-8.48 14.93-8.48L10.77-8.48 10.77-8.76C11.82-8.93 12.72-9.16 13.52-9.43 14.6-8.87 15.96-8.51 17.69-8.17L18.12-9.78C17-9.9 16.1-10.07 15.32-10.32 16.06-10.82 16.61-11.44 16.95-12.16ZM15.02-12.16C14.69-11.78 14.2-11.46 13.57-11.17 13.26-11.37 12.97-11.62 12.7-11.89L12.07-11.89 12.29-12.16ZM14.19-5.13L14.19-4.9C14.19-4.73 14.08-4.63 13.91-4.63L10.77-4.63 10.77-5.13ZM14.19-6.58L10.77-6.58 10.77-7.08 13.91-7.08C14.08-7.08 14.19-6.98 14.19-6.81ZM7.16-13.57L7.16-14.46 5.28-14.46 5.28-13.57 3.94-13.57C3.23-13.57 2.75-13.07 2.75-12.36L2.75-11.17C2.75-10.28 2.48-9.4 1.66-8.42L3.65-8.42C4.01-8.8 4.26-9.23 4.43-9.69L8.42-9.69C9.13-9.69 9.61-10.16 9.61-10.9L9.61-12.36C9.61-13.07 9.13-13.57 8.42-13.57ZM4.63-11.17L4.63-11.89C4.63-12.02 4.66-12.07 4.81-12.07L7.54-12.07C7.66-12.07 7.72-12.02 7.72-11.89L7.72-11.37C7.72-11.22 7.66-11.17 7.54-11.17ZM33.77 0.58L36.09 0.58 34.57-3.72 32.26-3.72ZM21.81-3.72L19.99 0.58 22.3 0.58 24.12-3.72ZM29.83-5.08L35.22-5.08 35.22-6.96 29.83-6.96 29.83-9.76 27.63-9.76 27.63-6.96 24-6.96C24.77-7.82 25.68-9.29 26.42-10.84L35.65-10.84 35.65-12.72 27.18-12.72C27.38-13.32 27.54-13.91 27.65-14.46L25.28-14.46C25.14-13.9 24.96-13.32 24.72-12.72L20.47-12.72 20.65-10.84 23.87-10.84C23.2-9.56 22.35-8.29 21.43-7.23 20.67-6.36 21.14-5.08 22.24-5.08L27.63-5.08 27.63-1.17C27.63-0.52 27.4-0.27 26.65-0.25 26.02-0.23 25.19-0.31 24.3-0.56L24.79 1.32C25.75 1.54 26.74 1.64 27.59 1.63 29.09 1.61 29.83 0.9 29.83-0.49ZM47.4-12.47L47.4-14.46 45.16-14.46 45.16-12.47 38.35-12.47 38.51-10.59 54.3-10.59 54.3-12.47ZM47.36-6.7L50.92-6.7C51.09-6.7 51.19-6.61 51.19-6.47L51.19-2.76C51.19-2.39 50.96-2.1 50.51-2.08 49.73-2.06 49.12-2.11 48.32-2.26L48.79-0.4C49.71-0.25 50.44-0.2 51.37-0.23 52.48-0.25 53.29-1.01 53.29-1.92L53.29-7.3C53.29-8.02 52.73-8.51 51.9-8.51L47.36-8.51 47.36-9.96 45.19-9.96 45.19-8.51 40.66-8.51C39.81-8.51 39.25-8.02 39.25-7.3L39.25-0.09 41.35-0.09 41.35-6.47C41.35-6.61 41.45-6.7 41.62-6.7L45.19-6.7 45.19 1.81 47.36 1.81ZM70.69-13.52L66.45-13.52C65.61-13.52 65.18-13.08 65.18-12.25L65.18-7.91C65.18-7.12 65.61-6.65 66.45-6.65L70.69-6.65C71.52-6.65 71.96-7.1 71.96-7.91L71.96-12.25C71.96-13.07 71.51-13.52 70.69-13.52ZM67.51-11.71L69.64-11.71C69.81-11.71 69.9-11.6 69.9-11.46L69.9-8.73C69.9-8.58 69.79-8.46 69.63-8.46L67.51-8.46C67.35-8.46 67.24-8.58 67.24-8.73L67.24-11.44C67.24-11.58 67.35-11.71 67.51-11.71ZM68.79-1.36L68.79-0.63C68.79-0.47 68.67-0.36 68.51-0.36L60.08-0.36C59.92-0.36 59.81-0.47 59.81-0.63L59.81-1.36ZM68.79-3.09L59.81-3.09 59.81-3.81C59.81-3.96 59.92-4.08 60.08-4.08L68.51-4.08C68.67-4.08 68.79-3.96 68.79-3.81ZM61.84-11.84L64.19-11.84 64.19-13.59 59.18-13.59C59.27-13.88 59.36-14.19 59.42-14.46L57.59-14.46C57.32-13.3 56.78-11.94 56.09-10.95L57.93-10.95C58.13-11.22 58.31-11.53 58.46-11.84L59.71-11.84 59.71-11.15C59.71-10.97 59.69-10.79 59.67-10.61L56.33-10.61 56.51-8.85 58.95-8.85C58.33-8.01 57.36-7.34 56.18-6.88L56.71-4.95C57.18-5.11 57.61-5.31 58.01-5.51 57.77-5.26 57.65-4.9 57.65-4.43L57.65-0.02C57.65 0.94 58.13 1.45 59.11 1.45L69.48 1.45C70.46 1.45 70.96 0.94 70.96-0.02L70.96-4.43C70.96-5.37 70.46-5.89 69.48-5.89L59.11-5.89C58.93-5.89 58.75-5.87 58.6-5.84 59.65-6.45 60.46-7.21 61.01-8.1L62.43-6.31 64.82-6.31 63.03-8.49 61.24-8.49C61.3-8.62 61.35-8.73 61.4-8.85L64.53-8.85 64.53-10.61 61.82-10.61C61.84-10.79 61.84-10.97 61.84-11.15ZM74.58 1.77L76.84 1.77C77.88-0.6 78.37-2.55 78.72-4.9L76.6-4.9C76.22-2.55 75.66-0.6 74.58 1.77ZM75.08-12.11L78.95-10.93 78.95-12.83 75.08-14.02ZM74.52-7.77L78.34-6.6 78.34-8.48 74.52-9.65ZM82.26-11.87L90.3-11.87 90.3-13.68 81.26-13.68C80.29-13.68 79.82-13.21 79.82-12.23L79.82 0C79.82 0.96 80.29 1.43 81.26 1.43L90.57 1.43 90.57-0.38 82.26-0.38C82.08-0.38 81.99-0.47 81.99-0.65L81.99-11.6C81.99-11.78 82.08-11.87 82.26-11.87ZM91.94-12.13L95.07-11.1 95.07-13.05 91.94-14.08ZM91.11 1.5L93.32 1.5C94.04-0.63 94.56-2.86 94.83-5.17L92.72-5.17C92.39-3.04 91.96-0.81 91.11 1.5ZM91.51-7.97L94.69-6.94 94.69-8.89 91.51-9.92ZM105.88-3.6L107.95-3.6 107.95-5.4 105.88-5.4 105.88-5.75C105.88-6.05 106-6.4 106.22-6.61L107-7.45C107.85-8.35 107.59-9.54 106.27-9.54L102.66-9.54C103.09-10.05 103.44-10.57 103.71-11.15L107.72-11.15 107.72-12.96 104.3-12.96C104.39-13.43 104.47-13.91 104.54-14.46L102.59-14.46C102.32-12.78 101.88-11.64 101.07-10.63L101.07-12.36 99.32-12.36 99.32-14.46 97.29-14.46 97.29-12.36 95.34-12.36 95.52-10.55 96.12-10.55 96.12-7.64C96.12-3.67 95.65-1.12 94.38 1.81L96.48 1.81C97.6-1.07 97.94-2.93 97.98-7.07L98.72-7.07C98.88-7.07 98.99-6.96 98.99-6.79 99.1-4.95 99.08-2.66 98.92-0.72 98.9-0.38 98.67-0.22 98.34-0.22 97.96-0.22 97.73-0.23 97.4-0.36L97.89 1.45C98.32 1.57 98.58 1.61 99.06 1.61 100.02 1.61 100.76 0.85 100.82-0.07 101-2.49 101.03-4.99 100.87-7.35 100.82-8.22 100.29-8.8 99.42-8.8L97.98-8.8 97.98-10.55 101-10.55C100.91-10.44 100.8-10.34 100.71-10.23L101.48-8.4C101.74-8.62 101.97-8.82 102.17-9.04L102.28-7.84 104.92-7.84 104.43-7.25C104.09-6.83 103.82-6.27 103.82-5.73L103.82-5.4 101.45-5.4 101.63-3.6 103.82-3.6 103.82-0.69C103.82-0.27 103.65-0.13 103.22-0.13 102.71-0.13 102.1-0.18 101.56-0.29L102.04 1.43C102.7 1.55 103.44 1.63 104.09 1.61 105.21 1.59 105.88 0.99 105.88-0.07ZM124.13 0.83L126.46 0.83 124.69-4.23 122.41-4.23ZM112.76-4.23L110.99 0.83 113.32 0.83 115.04-4.23ZM120.35-5.76L126.33-5.76 126.33-7.64 120.35-7.64 120.35-10.61 118.15-10.61 118.15-7.64 113.92-7.64 114.17-11.58C114.19-11.76 114.3-11.85 114.48-11.85L119.66-11.85C121.65-11.85 123.75-12.02 125.5-12.32L125.5-14.2C124.02-13.95 122.01-13.73 119.66-13.73L113.66-13.73C112.71-13.73 112.2-13.25 112.13-12.27L111.73-7.21C111.66-6.23 112.07-5.76 113.05-5.76L118.15-5.76 118.15-1.19C118.15-0.6 117.87-0.33 117.22-0.27 116.65-0.22 115.92-0.29 115.31-0.49L115.8 1.45C116.5 1.63 117.31 1.75 118.11 1.72 119.48 1.66 120.35 0.92 120.35-0.51ZM141.28-6.92L141.64-6.92C141.75-6.92 141.89-6.81 141.91-6.65 142.05-4.99 142.02-2.78 141.75-1.05 141.69-0.65 141.38-0.36 140.82-0.36 140.07-0.38 139.47-0.45 138.73-0.61 140.07-2.31 140.86-4.28 141.28-6.92ZM139.31-6.92C138.76-3.92 137.46-1.75 135.31 0L135.95 2.08C136.99 1.26 137.88 0.43 138.6-0.45L139.09 1.43C139.72 1.57 140.61 1.64 141.69 1.64 143.05 1.64 143.84 0.74 143.99-0.33 144.29-2.57 144.31-5.15 144.19-7.34 144.13-8.22 143.53-8.8 142.56-8.8L138.28-8.8 142.6-11.19C143.1-11.47 143.21-12 143.21-12.22 143.23-13.07 142.63-13.7 141.64-13.7L134.39-13.7 134.57-11.78 139.87-11.78 134.55-8.75 134.93-6.92 136.22-6.92C135.87-5.28 135.15-4.14 133.85-2.8L134.48-0.8C136.72-2.75 137.72-4.32 138.17-6.92ZM132.19-3.18L132.19-8.44 133.87-8.44 133.87-10.28 132.19-10.28 132.19-14.46 130.07-14.46 130.07-10.28 128.08-10.28 128.27-8.44 130.07-8.44 130.07-2.55 128.01-1.93 128.43-0.04 133.7-1.66 133.7-3.63ZM160.34-6.98L162.08-6.98 162.08-8.62C162.08-9.49 161.5-10.07 160.63-10.07L155.37-10.07 155.37-10.55C156.13-10.97 156.71-11.4 157.18-11.93L158.23-11.93 158.23-10.5 160.32-10.5 160.32-11.93 162.38-11.93 162.38-13.63 158.14-13.63C158.23-13.88 158.3-14.17 158.35-14.46L156.08-14.46C155.95-13.66 155.41-12.97 154.47-12.34L154.47-13.63 150.51-13.63C150.62-13.9 150.71-14.17 150.78-14.46L148.5-14.46C148.03-13.1 147.42-12.43 145.94-11.85L146.61-9.92C147.85-10.35 148.83-11.04 149.55-11.93L150.46-11.93 150.46-10.57 152.55-10.57 152.55-11.93 154.3-11.93 154.58-11.15 153.2-11.15 153.2-10.07 147.98-10.07C147.11-10.07 146.53-9.49 146.53-8.62L146.53-6.98 147.89-6.98C147.75-6.74 147.65-6.47 147.65-6.2L147.65 0C147.65 0.76 148.32 1.45 149.1 1.45L159.8 1.45C160.58 1.45 161.19 0.81 161.19 0.05L161.19-1.39C161.19-2.15 160.59-2.76 159.82-2.76L149.82-2.76 149.82-3.56 159.17-3.56C159.94-3.56 160.54-4.17 160.54-4.93L160.54-6.27C160.54-6.52 160.47-6.78 160.34-6.98ZM159.91-7.43C159.69-7.57 159.44-7.64 159.17-7.64L149.1-7.64C148.96-7.64 148.83-7.63 148.7-7.59L148.7-8.1C148.7-8.26 148.81-8.37 148.97-8.37L159.64-8.37C159.8-8.37 159.91-8.26 159.91-8.1ZM149.82-1.14L158.75-1.14C158.91-1.14 159.02-1.03 159.02-0.87L159.02-0.45C159.02-0.29 158.91-0.18 158.75-0.18L150.09-0.18C149.93-0.18 149.82-0.29 149.82-0.45ZM149.82-5.19L149.82-5.75C149.82-5.91 149.93-6.02 150.09-6.02L158.1-6.02C158.26-6.02 158.37-5.91 158.37-5.75L158.37-5.46C158.37-5.29 158.26-5.19 158.1-5.19ZM177.76-8.76L177.76-7.32C177.76-7.16 177.65-7.05 177.49-7.05L176.13-7.05 176.13-8.76ZM177.76-10.5L176.13-10.5 176.13-12.11 177.49-12.11C177.65-12.11 177.76-12 177.76-11.84ZM176.13-0.58L176.13-2.08 179.95-2.08 179.95-3.89 176.13-3.89 176.13-5.24 178.37-5.24C179.31-5.24 179.82-5.75 179.82-6.69L179.82-12.47C179.82-13.41 179.31-13.91 178.37-13.91L171.8-13.91C170.86-13.91 170.35-13.41 170.35-12.47L170.35-6.69C170.35-5.75 170.86-5.24 171.8-5.24L174.04-5.24 174.04-3.89 170.21-3.89 170.39-2.08 174.04-2.08 174.04-0.58 169.9-0.58 169.9-2.26 168.07-1.9 168.07-6.32 169.57-6.32 169.57-8.13 168.07-8.13 168.07-11.75 169.81-11.75 169.81-13.55 164.21-13.55 164.39-11.75 166.01-11.75 166.01-8.13 164.32-8.13 164.5-6.32 166.01-6.32 166.01-1.5 164.01-1.1 164.33 0.78 169.65-0.29 169.79 1.23 180.53 1.23 180.53-0.58ZM174.04-7.05L172.68-7.05C172.52-7.05 172.41-7.16 172.41-7.32L172.41-8.76 174.04-8.76ZM174.04-10.5L172.41-10.5 172.41-11.84C172.41-12 172.52-12.11 172.68-12.11L174.04-12.11ZM196.52 1.52L198.85 1.52 197.17-2.93 194.91-2.93ZM185.48 1.52L187.1-2.93 184.86-2.93 183.16 1.52ZM192.43-3.81L197.29-3.81C198.13-3.81 198.52-4.46 198.18-5.46L197.31-8.11 194.96-8.11 195.78-5.62 189.36-5.62C192.49-6.83 195.11-8.75 196.59-11L193.88-11C193.32-10.39 192.67-9.78 191.91-9.22L188.06-9.22C189.25-9.92 190.46-10.91 191.13-11.76 193.64-11.76 196.05-11.82 198.69-12.2L198.69-14.08C195.7-13.63 192.6-13.64 189.14-13.64L183.29-13.64 183.43-11.76 188.58-11.76C187.55-10.84 185.75-9.63 184.3-9.22L184.1-9.22 184.39-7.41 188.91-7.41C187.43-6.7 185.68-6.09 183.6-5.62L183.31-5.62 183.67-3.81 190.16-3.81 190.16-0.69C190.16-0.36 189.99-0.16 189.65-0.13 188.95-0.07 188.11-0.13 187.3-0.27L187.84 1.59C188.71 1.73 189.52 1.79 190.46 1.72 191.71 1.63 192.43 0.98 192.43-0.31ZM213.79-5.8L214.75-5.8C215.96-5.8 216.3-6.56 215.84-7.59L214.61-10.25 212.22-10.25 213.43-7.61 209.24-7.61C210.16-8.51 210.74-9.52 211.03-10.99L216.38-10.99 216.38-12.79 212.51-12.79 212.51-14.49 210.31-14.49 210.31-12.79 206.56-12.79 206.71-11.42 204.85-11.42C204.67-10.68 204.43-9.99 204.14-9.32L202.93-9.27C204-10.77 204.6-12.5 205.03-14.46L203-14.46C202.5-12.49 201.97-10.88 200.73-9.2L200.35-9.18 200.6-7.3 203.17-7.43C202.59-6.47 201.9-5.62 201.14-4.86L200.62-4.81 200.85-2.93 206.28-3.47 206.28-5.42 203.75-5.15C205.19-6.7 206.38-9.22 206.75-10.99L208.79-10.99C208.52-9.67 208.08-8.85 206.98-7.61L206.58-7.61 206.75-5.8 208.32-5.8 208.32-4.57C208.32-2.84 207.76-1.68 206.33-0.74L206.33-2.01 200.22-0.94 200.51 1.03 205.82 0.09 206.31 1.81C209 0.58 210.43-1.05 210.43-4.5L210.43-5.8 211.66-5.8 211.66-0.13C211.66 0.67 212.28 1.3 213.09 1.41 213.79 1.5 214.66 1.5 215.38 1.41 216.2 1.3 216.81 0.67 216.81-0.13L216.81-2.37 214.99-2.67 214.99-0.74C214.99-0.54 214.88-0.43 214.66-0.4 214.48-0.36 214.3-0.36 214.12-0.4 213.9-0.43 213.79-0.54 213.79-0.74Z" transform="translate(-1.6600000858306885, 14.489999771118164)"></path></g> <!----> <!----> <!----> <!----> <!----> <!----> <!----></g></g> <g data-gra="path-slogan" fill-rule="" class="tp-slogan" fill="url(#af2bbb22-bc82-4118-874b-d7237d72e454)" transform="translate(5,22.56999969482422)"><rect x="0" height="1" y="1.6850001811981201" width="9.839996337890625"></rect> <rect height="1" y="1.6850001811981201" width="9.839996337890625" x="195.30999755859375"></rect> <g transform="translate(12.839996337890625,0)"><g transform="scale(1)"><path d="M0.85-0.50L3.43-0.50L3.43 0L0.14 0L0.14-0.46L2.70-3.70L0.32-3.70L0.32-4.18L3.43-4.18L3.43-3.70L0.85-0.50ZM4.55-2.47L6.75-2.47L6.75-4.18L7.32-4.18L7.32 0L6.75 0L6.75-1.94L4.55-1.94L4.55 0L3.98 0L3.98-4.18L4.55-4.18L4.55-2.47ZM10.95 0L10.54-1.21L8.85-1.21L8.41 0L7.84 0L9.42-4.18L10.06-4.18L11.57 0L10.95 0ZM9.70-3.57L9.03-1.71L10.34-1.71L9.72-3.57L9.70-3.57ZM15.39-2.08L15.39-2.08Q15.30-3.73 13.93-3.82L13.93-3.82Q12.53-3.75 12.46-2.08L12.46-2.08Q12.53-0.46 13.93-0.39L13.93-0.39Q15.30-0.48 15.39-2.08ZM15.96-2.08L15.96-2.08Q15.82 0 13.93 0.07L13.93 0.07Q12.00 0 11.87-2.08L11.87-2.08Q11.98-4.25 13.93-4.30L13.93-4.30Q15.82-4.23 15.96-2.08ZM18.34 0L16.65 0L16.65-4.18L18.36-4.18Q20.05-4.09 20.12-2.15L20.12-2.15Q20.03-0.05 18.34 0L18.34 0ZM18.27-3.73L17.22-3.73L17.22-0.48L18.32-0.48Q19.50-0.55 19.55-2.10L19.55-2.10Q19.53-3.68 18.27-3.73L18.27-3.73ZM24.15-2.08L24.15-2.08Q24.05-3.73 22.68-3.82L22.68-3.82Q21.29-3.75 21.22-2.08L21.22-2.08Q21.29-0.46 22.68-0.39L22.68-0.39Q24.05-0.48 24.15-2.08ZM24.72-2.08L24.72-2.08Q24.58 0 22.68 0.07L22.68 0.07Q20.76 0 20.63-2.08L20.63-2.08Q20.74-4.25 22.68-4.30L22.68-4.30Q24.58-4.23 24.72-2.08ZM26.07-4.18L28.17-0.80L28.17-4.18L28.72-4.18L28.72 0L28.08 0L25.95-3.38L25.93-3.38L25.93 0L25.38 0L25.38-4.18L26.07-4.18ZM32.72-1.76L31.44-1.76L31.44-2.24L33.27-2.24L33.27 0L32.90 0L32.77-0.53Q32.29 0.05 31.39 0.07L31.39 0.07Q30.55 0.07 30.09-0.37L30.09-0.37Q29.41-1.01 29.43-2.13L29.43-2.13Q29.59-4.21 31.42-4.30L31.42-4.30Q32.97-4.21 33.20-2.93L33.20-2.93L32.65-2.93Q32.42-3.80 31.39-3.82L31.39-3.82Q30.09-3.73 30.02-2.10L30.02-2.10Q30.02-0.37 31.42-0.37L31.42-0.37Q31.92-0.37 32.29-0.64L32.29-0.64Q32.74-1.01 32.72-1.76L32.72-1.76ZM36.17-0.50L38.76-0.50L38.76 0L35.46 0L35.46-0.46L38.03-3.70L35.65-3.70L35.65-4.18L38.76-4.18L38.76-3.70L36.17-0.50ZM39.88-2.47L42.07-2.47L42.07-4.18L42.64-4.18L42.64 0L42.07 0L42.07-1.94L39.88-1.94L39.88 0L39.31 0L39.31-4.18L39.88-4.18L39.88-2.47ZM43.61-4.18L44.18-4.18L44.18 0L43.61 0L43.61-4.18ZM45.71-2.47L47.90-2.47L47.90-4.18L48.48-4.18L48.48 0L47.90 0L47.90-1.94L45.71-1.94L45.71 0L45.14 0L45.14-4.18L45.71-4.18L45.71-2.47ZM52.11-1.55L52.11-4.18L52.68-4.18L52.68-1.49Q52.61 0.02 50.97 0.07L50.97 0.07Q49.44 0.02 49.37-1.39L49.37-1.39L49.37-4.18L49.94-4.18L49.94-1.55Q49.96-0.41 50.99-0.39L50.99-0.39Q52.11-0.41 52.11-1.55L52.11-1.55ZM53.64-4.18L54.21-4.18L54.21 0L53.64 0L53.64-4.18ZM59.57 0L59.15-1.21L57.46-1.21L57.03 0L56.46 0L58.03-4.18L58.67-4.18L60.18 0L59.57 0ZM58.31-3.57L57.64-1.71L58.95-1.71L58.33-3.57L58.31-3.57ZM64.71-4.18L64.71 0L64.16 0L64.16-2.47Q64.16-2.81 64.16-3.52L64.16-3.52L62.97 0L62.40 0L61.23-3.52L61.21-3.52Q61.21-3.27 61.23-2.77L61.23-2.77Q61.23-2.52 61.23-2.47L61.23-2.47L61.23 0L60.66 0L60.66-4.18L61.49-4.18L62.70-0.64L63.89-4.18L64.71-4.18ZM68.30-1.55L68.30-4.18L68.87-4.18L68.87-1.49Q68.80 0.02 67.16 0.07L67.16 0.07Q65.63 0.02 65.56-1.39L65.56-1.39L65.56-4.18L66.13-4.18L66.13-1.55Q66.15-0.41 67.18-0.39L67.18-0.39Q68.30-0.41 68.30-1.55L68.30-1.55ZM72.80-2.97L72.80-2.97L72.28-2.97Q72.23-3.77 71.23-3.82L71.23-3.82Q70.29-3.80 70.29-3.09L70.29-3.09Q70.29-2.63 70.79-2.56L70.79-2.56L71.98-2.29Q72.92-2.06 72.92-1.14L72.92-1.14Q72.90 0.02 71.27 0.07L71.27 0.07Q70.38 0.07 70.02-0.30L70.02-0.30Q69.56-0.64 69.58-1.35L69.58-1.35L70.13-1.35Q70.15-0.39 71.27-0.37L71.27-0.37Q72.37-0.39 72.39-1.07L72.39-1.07Q72.48-1.65 71.48-1.83L71.48-1.83L70.61-2.01Q69.72-2.26 69.72-3.02L69.72-3.02Q69.79-4.25 71.18-4.30L71.18-4.30Q72.76-4.30 72.80-2.97ZM74.27-0.50L76.78-0.50L76.78 0L73.70 0L73.70-4.18L76.74-4.18L76.74-3.70L74.27-3.70L74.27-2.40L76.55-2.40L76.55-1.90L74.27-1.90L74.27-0.50ZM81.54-4.18L81.54 0L80.99 0L80.99-2.47Q80.99-2.81 80.99-3.52L80.99-3.52L79.80 0L79.23 0L78.06-3.52L78.04-3.52Q78.04-3.27 78.06-2.77L78.06-2.77Q78.06-2.52 78.06-2.47L78.06-2.47L78.06 0L77.49 0L77.49-4.18L78.32-4.18L79.53-0.64L80.72-4.18L81.54-4.18ZM83.00-0.50L85.52-0.50L85.52 0L82.43 0L82.43-4.18L85.47-4.18L85.47-3.70L83.00-3.70L83.00-2.40L85.29-2.40L85.29-1.90L83.00-1.90L83.00-0.50ZM86.94-4.18L89.04-0.80L89.04-4.18L89.59-4.18L89.59 0L88.95 0L86.82-3.38L86.80-3.38L86.80 0L86.25 0L86.25-4.18L86.94-4.18ZM91.53-3.70L90.11-3.70L90.11-4.18L93.50-4.18L93.50-3.70L92.08-3.70L92.08 0L91.53 0L91.53-3.70ZM97.41-3.73L96.27-3.73L96.27-2.26L97.39-2.26Q98.25-2.26 98.25-3.02L98.25-3.02Q98.25-3.70 97.41-3.73L97.41-3.73ZM97.59-1.76L96.27-1.76L96.27 0L95.69 0L95.69-4.18L97.59-4.18Q98.78-4.14 98.83-3.02L98.83-3.02Q98.76-1.81 97.59-1.76L97.59-1.76ZM102.28 0L101.87-1.21L100.18-1.21L99.74 0L99.17 0L100.75-4.18L101.39-4.18L102.90 0L102.28 0ZM101.02-3.57L100.36-1.71L101.66-1.71L101.04-3.57L101.02-3.57ZM105.41-1.81L104.04-1.81L104.04 0L103.47 0L103.47-4.18L105.41-4.18Q106.81-4.18 106.81-3.06L106.81-3.06Q106.81-2.38 106.21-2.06L106.21-2.06Q106.71-1.92 106.71-1.26L106.71-1.26L106.76-0.50Q106.74-0.18 106.97-0.09L106.97-0.09L106.97 0L106.26 0Q106.19-0.30 106.17-1.05L106.17-1.05Q106.19-1.81 105.41-1.81L105.41-1.81ZM105.46-3.73L104.04-3.73L104.04-2.29L105.37-2.29Q106.21-2.29 106.21-3.02L106.21-3.02Q106.21-3.73 105.46-3.73L105.46-3.73ZM108.84-2.10L108.18-1.49L108.18 0L107.61 0L107.61-4.18L108.18-4.18L108.18-2.15L110.21-4.18L111.01-4.18L109.25-2.49L111.06 0L110.30 0L108.84-2.10ZM117.14-4.18L117.14 0L116.59 0L116.59-2.47Q116.59-2.81 116.59-3.52L116.59-3.52L115.40 0L114.83 0L113.67-3.52L113.64-3.52Q113.64-3.27 113.67-2.77L113.67-2.77Q113.67-2.52 113.67-2.47L113.67-2.47L113.67 0L113.09 0L113.09-4.18L113.92-4.18L115.13-0.64L116.32-4.18L117.14-4.18ZM120.73 0L120.32-1.21L118.63-1.21L118.19 0L117.62 0L119.20-4.18L119.84-4.18L121.35 0L120.73 0ZM119.47-3.57L118.81-1.71L120.11-1.71L119.50-3.57L119.47-3.57ZM122.54-4.18L124.64-0.80L124.64-4.18L125.19-4.18L125.19 0L124.55 0L122.42-3.38L122.40-3.38L122.40 0L121.85 0L121.85-4.18L122.54-4.18ZM128.83 0L128.41-1.21L126.72-1.21L126.29 0L125.72 0L127.29-4.18L127.93-4.18L129.44 0L128.83 0ZM127.57-3.57L126.91-1.71L128.21-1.71L127.59-3.57L127.57-3.57ZM133.08-1.76L131.80-1.76L131.80-2.24L133.63-2.24L133.63 0L133.26 0L133.13-0.53Q132.64 0.05 131.75 0.07L131.75 0.07Q130.91 0.07 130.45-0.37L130.45-0.37Q129.76-1.01 129.79-2.13L129.79-2.13Q129.95-4.21 131.78-4.30L131.78-4.30Q133.33-4.21 133.56-2.93L133.56-2.93L133.01-2.93Q132.78-3.80 131.75-3.82L131.75-3.82Q130.45-3.73 130.38-2.10L130.38-2.10Q130.38-0.37 131.78-0.37L131.78-0.37Q132.28-0.37 132.64-0.64L132.64-0.64Q133.10-1.01 133.08-1.76L133.08-1.76ZM135.14-0.50L137.65-0.50L137.65 0L134.57 0L134.57-4.18L137.61-4.18L137.61-3.70L135.14-3.70L135.14-2.40L137.42-2.40L137.42-1.90L135.14-1.90L135.14-0.50ZM142.41-4.18L142.41 0L141.86 0L141.86-2.47Q141.86-2.81 141.86-3.52L141.86-3.52L140.67 0L140.10 0L138.93-3.52L138.91-3.52Q138.91-3.27 138.93-2.77L138.93-2.77Q138.93-2.52 138.93-2.47L138.93-2.47L138.93 0L138.36 0L138.36-4.18L139.18-4.18L140.40-0.64L141.59-4.18L142.41-4.18ZM143.87-0.50L146.39-0.50L146.39 0L143.30 0L143.30-4.18L146.34-4.18L146.34-3.70L143.87-3.70L143.87-2.40L146.16-2.40L146.16-1.90L143.87-1.90L143.87-0.50ZM147.80-4.18L149.91-0.80L149.91-4.18L150.46-4.18L150.46 0L149.82 0L147.69-3.38L147.67-3.38L147.67 0L147.12 0L147.12-4.18L147.80-4.18ZM152.40-3.70L150.98-3.70L150.98-4.18L154.37-4.18L154.37-3.70L152.95-3.70L152.95 0L152.40 0L152.40-3.70ZM159.56-2.97L159.56-2.97L159.03-2.97Q158.99-3.77 157.98-3.82L157.98-3.82Q157.04-3.80 157.04-3.09L157.04-3.09Q157.04-2.63 157.55-2.56L157.55-2.56L158.73-2.29Q159.67-2.06 159.67-1.14L159.67-1.14Q159.65 0.02 158.03 0.07L158.03 0.07Q157.13 0.07 156.77-0.30L156.77-0.30Q156.31-0.64 156.33-1.35L156.33-1.35L156.88-1.35Q156.91-0.39 158.03-0.37L158.03-0.37Q159.12-0.39 159.15-1.07L159.15-1.07Q159.24-1.65 158.23-1.83L158.23-1.83L157.36-2.01Q156.47-2.26 156.47-3.02L156.47-3.02Q156.54-4.25 157.93-4.30L157.93-4.30Q159.51-4.30 159.56-2.97ZM163.77-4.18L162.19-1.69L162.19 0L161.62 0L161.62-1.69L160.04-4.18L160.70-4.18L161.89-2.17L163.10-4.18L163.77-4.18ZM167.33-2.97L167.33-2.97L166.81-2.97Q166.76-3.77 165.75-3.82L165.75-3.82Q164.82-3.80 164.82-3.09L164.82-3.09Q164.82-2.63 165.32-2.56L165.32-2.56L166.51-2.29Q167.45-2.06 167.45-1.14L167.45-1.14Q167.42 0.02 165.80 0.07L165.80 0.07Q164.91 0.07 164.54-0.30L164.54-0.30Q164.09-0.64 164.11-1.35L164.11-1.35L164.66-1.35Q164.68-0.39 165.80-0.37L165.80-0.37Q166.90-0.39 166.92-1.07L166.92-1.07Q167.01-1.65 166.01-1.83L166.01-1.83L165.14-2.01Q164.25-2.26 164.25-3.02L164.25-3.02Q164.31-4.25 165.71-4.30L165.71-4.30Q167.29-4.30 167.33-2.97ZM169.23-3.70L167.81-3.70L167.81-4.18L171.20-4.18L171.20-3.70L169.78-3.70L169.78 0L169.23 0L169.23-3.70ZM172.34-0.50L174.86-0.50L174.86 0L171.77 0L171.77-4.18L174.81-4.18L174.81-3.70L172.34-3.70L172.34-2.40L174.63-2.40L174.63-1.90L172.34-1.90L172.34-0.50ZM179.61-4.18L179.61 0L179.06 0L179.06-2.47Q179.06-2.81 179.06-3.52L179.06-3.52L177.87 0L177.30 0L176.14-3.52L176.11-3.52Q176.11-3.27 176.14-2.77L176.14-2.77Q176.14-2.52 176.14-2.47L176.14-2.47L176.14 0L175.56 0L175.56-4.18L176.39-4.18L177.60-0.64L178.79-4.18L179.61-4.18Z" transform="translate(-0.13719512195121952, 4.298780487804878)"></path></g></g></g></g><defs v-gra="od"><linearGradient x1="0" y1="1" x2="0" y2="0" id="af2bbb22-bc82-4118-874b-d7237d72e454"><stop offset="0%" stop-color="#b722ff"></stop><stop offset="100%" stop-color="#22d4fe"></stop></linearGradient><filter id="42443b3f1de60f6b6fd3b6a9844b4764" filterUnits="objectBoundingBox"><feColorMatrix type="matrix" values="0 0 0 0 0.99609375  0 0 0 0 0.99609375  0 0 0 0 0.99609375  0 0 0 1 0"></feColorMatrix></filter><linearGradient x1="0" y1="1" x2="0" y2="0" id="6c0b7b33-dcc6-4e9f-9e8e-faa17f33b6f7"><stop offset="0%" stop-color="#b722ff"></stop><stop offset="100%" stop-color="#22d4fe"></stop></linearGradient><filter id="42443b3f1de60f6b6fd3b6a9844b4764" filterUnits="objectBoundingBox"><feColorMatrix type="matrix" values="0 0 0 0 0.99609375  0 0 0 0 0.99609375  0 0 0 0 0.99609375  0 0 0 1 0"></feColorMatrix></filter></defs></svg>